<svg xmlns="http://www.w3.org/2000/svg" viewBox="0 0 960 540" role="img" aria-labelledby="title desc">
  <title id="title">Leaf upload two</title>
  <desc id="desc">A target leaf with several visible disease spots.</desc>
  <rect width="960" height="540" rx="28" fill="#f7f1eb"/>
  <path d="M455 470C430 352 455 246 532 138C606 35 745 54 814 84C800 203 742 315 640 386C578 428 510 456 455 470Z" fill="#739d62"/>
  <path d="M459 456C532 332 612 225 778 101M532 332L502 260M612 225L590 158" fill="none" stroke="#dcefcf" stroke-width="9" stroke-linecap="round"/>
  <g fill="#9a5446"><circle cx="676" cy="189" r="18"/><circle cx="729" cy="240" r="15"/><circle cx="690" cy="300" r="17"/><circle cx="622" cy="286" r="11"/><circle cx="755" cy="315" r="9"/></g>
</svg>
